<?xml version="1.0" standalone="no"?>
<!DOCTYPE svg PUBLIC "-//W3C//DTD SVG 20010904//EN" "http://www.w3.org/TR/2001/REC-SVG-20010904/DTD/svg10.dtd">
<svg xmlns="http://www.w3.org/2000/svg" version="1.0" width="1024.000000pt" height="1024.000000pt" viewBox="0 0 1024.000000 1024.000000" preserveAspectRatio="xMidYMid meet">
<metadata>
Created by potrace 1.16, written by Peter Selinger 2001-2019
<meta name="Producer" content="Online-Convert"/></metadata>
<g transform="translate(0.000000,1024.000000) scale(0.100000,-0.100000)" fill="#000000" stroke="none">
<path d="M4643 9633 c-12 -2 -27 -10 -33 -18 -9 -10 1 -23 47 -58 154 -118 272 -299 289 -440 9 -75 -11 -177 -50 -262 -32 -67 -73 -126 -226 -320 -46 -59 -93 -135 -135 -222 -72 -146 -99 -183 -150 -207 -45 -22 -123 -23 -162 -2 -44 22 -91 80 -104 128 -6 25 -9 79 -7 128 4 71 11 99 42 165 38 83 108 182 194 276 29 31 52 59 52 62 0 13 -151 -38 -233 -79 -131 -65 -246 -145 -349 -242 -111 -106 -172 -186 -231 -300 -126 -245 -147 -478 -71 -782 47 -189 54 -294 25 -372 -49 -129 -185 -177 -275 -97 -65 57 -80 158 -50 336 13 79 14 107 4 174 -42 293 -208 524 -427 598 -90 30 -101 29 -71 -11 89 -116 118 -274 82 -446 -9 -42 -47 -154 -85 -248 -103 -254 -113 -297 -113 -489 -1 -143 8 -221 29 -278 11 -26 -7 -20 -52 18 -173 148 -237 483 -144 753 16 45 27 82 24 82 -19 0 -133 -104 -179 -163 -141 -181 -214 -418 -214 -700 0 -146 15 -234 66 -381 40 -116 45 -189 15 -206 -32 -16 -57 -12 -92 17 -63 54 -98 172 -108 368 l-6 120 -53 -104 c-131 -256 -191 -561 -179 -906 10 -261 47 -451 157 -790 180 -556 396 -969 719 -1370 66 -82 119 -152 118 -155 -2 -3 -16 -32 -32 -65 -37 -76 -39 -170 -6 -295 29 -108 23 -153 -28 -240 -139 -232 -66 -478 164 -549 35 -11 132 -27 217 -36 263 -27 399 -69 664 -205 217 -110 297 -134 454 -135 126 0 177 12 285 69 81 42 174 137 211 214 20 41 34 59 44 57 115 -32 497 -43 705 -21 132 14 296 42 353 60 17 6 20 0 25 -60 7 -89 60 -197 125 -254 158 -140 388 -159 618 -51 119 56 186 106 375 282 138 128 196 173 365 284 284 188 333 250 322 407 -7 85 -40 144 -118 205 -30 24 -73 58 -95 77 l-39 33 39 34 c88 75 252 240 332 334 87 103 276 380 355 520 278 491 481 1127 518 1625 18 233 -14 488 -94 753 -33 106 -107 291 -125 310 -4 4 -14 -41 -20 -100 -7 -59 -21 -149 -31 -198 -37 -189 -121 -276 -184 -192 -31 42 -27 122 11 217 104 257 89 496 -46 775 -64 132 -130 230 -217 324 -94 102 -98 98 -51 -42 33 -103 41 -139 45 -228 8 -189 -39 -328 -150 -443 l-60 -61 7 35 c49 279 28 411 -123 751 -72 161 -94 250 -94 379 0 125 23 210 78 290 33 49 34 51 12 45 -13 -3 -61 -25 -108 -47 -114 -55 -238 -176 -292 -288 -72 -145 -91 -303 -63 -515 9 -75 14 -149 10 -175 -18 -121 -103 -187 -204 -160 -56 15 -104 60 -131 122 -20 46 -22 64 -17 153 3 64 15 143 35 220 44 171 55 267 49 413 -7 191 -55 337 -162 498 -110 165 -284 322 -479 433 -49 28 -91 49 -93 47 -3 -2 11 -35 30 -72 106 -212 135 -431 77 -586 -25 -67 -96 -150 -154 -181 -63 -33 -159 -31 -214 6 -95 63 -113 173 -61 392 42 182 46 345 11 469 -83 291 -295 535 -585 671 -200 94 -407 141 -524 118z m442 -215 c89 -45 186 -120 265 -206 122 -132 190 -299 190 -467 0 -155 -28 -241 -127 -396 -109 -169 -139 -286 -109 -422 32 -142 124 -246 255 -287 209 -66 499 39 666 243 126 154 167 372 106 567 l-20 64 24 -29 c93 -114 171 -261 207 -390 17 -65 22 -107 22 -220 0 -157 -5 -182 -84 -415 -61 -181 -80 -274 -80 -393 0 -259 118 -445 301 -476 35 -5 43 -9 24 -10 -45 -1 -95 15 -149 49 -47 30 -49 31 -42 8 22 -84 39 -220 40 -323 1 -100 -3 -132 -23 -190 -37 -114 -80 -185 -154 -256 -78 -77 -201 -149 -211 -124 -17 45 -28 203 -22 330 30 690 12 1036 -66 1243 -22 60 -100 152 -150 178 -81 42 -194 38 -304 -11 l-54 -24 -83 40 c-222 106 -519 104 -745 -7 l-92 -45 -68 32 c-54 26 -83 34 -148 37 -71 4 -86 1 -130 -21 -155 -78 -222 -263 -255 -697 -13 -177 -7 -350 21 -585 55 -452 11 -593 -305 -985 -64 -80 -151 -196 -192 -257 -42 -62 -77 -113 -78 -113 -2 0 -1 8 1 18 3 11 -23 47 -71 102 -143 161 -233 320 -282 495 -24 89 -28 117 -28 250 0 105 6 174 18 231 19 90 70 251 93 297 9 16 13 31 11 33 -7 8 -64 -134 -91 -228 -32 -110 -47 -221 -47 -349 -1 -94 -9 -130 -14 -57 -1 18 -6 41 -10 51 -5 11 -3 17 6 17 11 0 11 3 -1 10 -22 14 -30 12 -23 -7 5 -12 1 -11 -15 5 -24 24 -29 38 -10 26 8 -5 9 -2 5 9 -3 10 -2 17 2 17 5 0 12 7 15 16 3 8 2 13 -2 10 -15 -9 -30 9 -33 39 -2 17 -8 33 -13 37 -6 4 -4 13 4 23 12 15 11 16 -14 9 -19 -4 -26 -3 -24 6 2 7 -2 14 -8 17 -7 2 -21 -15 -33 -39 -27 -56 -111 -150 -175 -197 -52 -39 -136 -86 -136 -76 0 2 21 16 48 29 103 53 210 166 266 281 52 106 70 195 63 317 -6 125 -28 193 -120 368 -86 164 -101 221 -100 380 1 148 15 209 96 415 65 164 82 241 74 333 l-5 67 29 -72 c54 -137 62 -276 23 -458 -11 -56 -15 -107 -11 -170 8 -145 48 -225 198 -390 126 -140 144 -186 160 -408 12 -173 35 -272 84 -367 47 -89 95 -143 148 -169 54 -26 83 -26 124 -1 70 42 84 135 43 290 -26 96 -30 227 -10 300 6 25 34 97 60 160 84 199 95 250 94 440 0 187 -7 218 -93 455 -69 190 -91 282 -98 400 -10 176 37 351 137 510 27 44 58 91 69 105 l21 25 -10 -35 c-6 -19 -10 -72 -10 -118 0 -236 123 -421 328 -493 130 -47 255 -22 352 68 72 66 111 142 135 263 30 147 62 207 200 376 149 181 192 264 215 421 26 166 -38 354 -163 487 -20 21 -37 40 -37 42 0 5 68 -25 135 -58z m2264 -2027 c74 -177 112 -299 110 -355 0 -18 -6 -1 -14 39 -7 39 -22 97 -34 130 -28 79 -114 276 -118 271 -2 -2 1 -15 6 -29 7 -18 7 -27 -1 -29 -7 -3 -6 -11 3 -25 15 -25 8 -38 -17 -29 -12 5 -14 9 -5 20 11 13 5 26 -11 26 -4 0 -6 -14 -3 -31 4 -21 2 -28 -5 -24 -6 4 -10 19 -9 33 2 15 0 33 -4 40 -10 15 14 17 29 2 7 -7 11 -6 11 5 0 15 -4 17 -29 19 -7 1 -16 8 -21 16 -13 27 2 -103 23 -185 14 -55 19 -109 18 -175 l-1 -95 -7 105 c-4 58 -17 143 -28 190 -36 145 -34 293 5 417 l18 58 6 -110 c6 -108 7 -113 78 -284z m-1650 -640 c74 -38 143 -142 172 -261 37 -155 -9 -369 -98 -452 l-28 -26 -75 20 c-41 10 -78 23 -83 27 -4 4 4 14 19 21 87 47 138 234 92 336 -11 24 -11 23 -29 -16 -26 -58 -89 -69 -108 -18 -9 25 6 65 34 88 16 13 16 15 -2 21 -36 15 -90 9 -116 -11 -14 -11 -36 -41 -49 -68 -20 -40 -23 -62 -23 -154 l0 -107 -52 51 c-64 63 -76 97 -76 208 0 106 26 179 89 249 101 112 226 146 333 92z m-993 2 c70 -24 154 -109 184 -188 28 -73 37 -200 20 -264 -10 -39 -69 -111 -89 -111 -4 0 -6 39 -6 88 0 218 -124 303 -243 168 -79 -90 -65 -256 29 -340 l39 -36 -62 -40 c-34 -22 -67 -39 -72 -37 -22 7 -105 127 -125 182 -72 191 -38 406 82 523 71 70 148 87 243 55z m2393 -390 c-87 -124 -109 -302 -69 -549 57 -346 3 -640 -161 -889 -34 -52 -65 -92 -69 -90 -4 3 -26 36 -48 73 -50 85 -139 206 -243 332 -179 216 -205 250 -228 291 -30 56 -19 46 22 -19 40 -62 129 -171 141 -171 19 -2 110 75 146 123 21 28 53 81 70 117 29 63 41 106 90 329 33 148 105 286 200 381 62 64 152 127 182 129 4 0 -11 -26 -33 -57z m-1887 -171 c24 -10 84 -51 133 -90 97 -77 188 -129 275 -157 76 -25 110 -61 110 -117 0 -57 -16 -78 -108 -140 -42 -28 -113 -81 -157 -118 -165 -138 -234 -174 -353 -186 -72 -7 -175 16 -251 56 -31 17 -99 67 -151 112 -52 44 -113 92 -135 106 -95 61 -126 113 -105 177 11 34 70 95 93 95 30 0 141 64 232 135 55 42 120 89 144 103 93 54 187 62 273 24z m549 -679 c30 -94 137 -360 269 -673 130 -310 175 -436 227 -637 38 -148 38 -148 37 -343 -1 -107 -5 -212 -10 -234 -8 -34 -15 -40 -54 -53 -141 -48 -217 -159 -255 -371 -51 -292 -142 -478 -293 -597 -82 -66 -240 -141 -357 -171 -135 -34 -350 -44 -480 -20 -160 28 -154 24 -210 129 -42 78 -73 116 -200 247 -181 186 -223 236 -309 362 -82 122 -149 259 -177 363 -54 195 -12 583 101 925 20 63 78 216 128 340 127 316 311 762 316 767 9 10 64 -27 246 -167 148 -113 308 -153 468 -115 83 20 136 48 267 142 88 63 253 172 262 173 1 0 11 -30 24 -67z m1670 -191 c53 -128 71 -214 71 -347 1 -74 -5 -147 -15 -191 -32 -149 -110 -300 -219 -426 -54 -63 -179 -162 -189 -150 -4 4 -14 32 -24 62 -29 90 -92 245 -135 330 -45 90 -45 90 -26 90 27 0 164 100 224 165 75 80 132 175 168 280 24 70 28 99 32 233 l4 154 39 -64 c22 -35 53 -96 70 -136z m-4501 -18 c21 -165 97 -334 202 -449 51 -56 165 -153 223 -189 27 -18 30 -18 40 -2 31 52 32 42 1 -19 -19 -39 -54 -118 -79 -175 -37 -88 -57 -139 -102 -268 -7 -19 -108 53 -175 124 -166 176 -258 380 -268 591 -8 178 21 311 105 481 l38 77 3 -45 c1 -25 7 -82 12 -126z m3442 -623 c75 -99 188 -320 232 -452 64 -192 85 -390 46 -429 -27 -27 -44 -25 -69 6 -14 18 -21 41 -21 73 0 134 -46 356 -106 518 -41 110 -137 307 -189 389 -19 30 -35 58 -35 62 1 10 74 -76 142 -167z m-2380 68 c-154 -267 -291 -696 -292 -909 0 -54 -31 -110 -60 -110 -11 0 -27 11 -36 25 -24 37 -13 158 30 326 72 281 165 470 337 684 34 42 63 74 65 72 2 -2 -18 -42 -44 -88z m-355 -1274 c95 -44 156 -119 313 -390 51 -88 125 -207 165 -265 39 -58 101 -148 136 -200 100 -146 186 -299 204 -364 20 -69 15 -157 -11 -209 -49 -96 -142 -147 -272 -147 -114 0 -177 20 -378 120 -272 135 -424 181 -724 215 -74 9 -152 21 -173 27 -84 25 -127 103 -107 194 6 25 33 88 60 139 64 117 69 156 40 280 -34 145 -19 213 57 258 19 11 76 23 151 31 189 22 235 53 311 204 41 81 61 105 101 121 40 16 72 12 127 -14z m2853 -40 c42 -21 67 -78 85 -186 18 -114 34 -134 103 -133 41 0 65 11 163 69 92 55 122 69 158 69 69 1 82 -24 91 -176 11 -178 34 -223 155 -295 82 -49 104 -71 111 -109 15 -80 -40 -145 -211 -249 -136 -83 -218 -141 -291 -205 -31 -27 -61 -47 -67 -43 -5 3 -7 1 -4 -4 9 -14 -185 -199 -260 -249 -92 -61 -166 -87 -264 -92 -72 -4 -93 -1 -137 18 -94 40 -152 137 -152 249 0 53 28 174 64 279 45 129 95 372 126 608 34 259 47 313 89 371 55 76 172 114 241 78z"/>
<path d="M5520 5799 c-250 -105 -325 -124 -479 -117 -94 4 -124 11 -262 57 -143 47 -229 63 -229 43 0 -4 114 -66 254 -136 323 -164 291 -162 544 -23 160 89 302 187 302 209 0 16 -36 7 -130 -33z"/>
</g>
</svg>
