<?xml version="1.0" standalone="no"?>
<!DOCTYPE svg PUBLIC "-//W3C//DTD SVG 20010904//EN"
 "http://www.w3.org/TR/2001/REC-SVG-20010904/DTD/svg10.dtd">
<svg version="1.0" xmlns="http://www.w3.org/2000/svg"
 width="28.000000pt" height="28.000000pt" viewBox="0 0 28.000000 28.000000"
 preserveAspectRatio="xMidYMid meet">

<g transform="translate(0.000000,28.000000) scale(0.100000,-0.100000)"
fill="#000000" stroke="none">
<path d="M81 252 c-38 -20 -71 -73 -71 -112 0 -62 68 -130 130 -130 39 0 92
33 112 71 23 43 23 75 0 118 -20 38 -73 71 -112 71 -14 0 -41 -8 -59 -18z m11
-57 c-10 -32 -20 -45 -33 -45 -28 0 -23 27 10 61 16 16 31 29 34 29 2 0 -2
-20 -11 -45z m132 3 c21 -30 20 -48 -3 -48 -13 0 -23 13 -33 45 -14 42 -14 44
3 34 10 -5 25 -19 33 -31z m-66 7 c19 -42 15 -55 -18 -55 -20 0 -30 5 -30 15
0 19 21 65 30 65 4 0 12 -11 18 -25z m-66 -120 c14 -42 14 -44 -3 -34 -22 11
-49 48 -49 66 0 7 8 13 19 13 13 0 23 -13 33 -45z m78 30 c0 -19 -21 -65 -30
-65 -9 0 -30 46 -30 65 0 10 10 15 30 15 20 0 30 -5 30 -15z m70 2 c0 -18 -27
-55 -49 -66 -17 -10 -17 -8 -3 34 10 32 20 45 33 45 11 0 19 -6 19 -13z"/>
</g>
</svg>
