<?xml version="1.0" standalone="no"?>
<!DOCTYPE svg PUBLIC "-//W3C//DTD SVG 20010904//EN"
 "http://www.w3.org/TR/2001/REC-SVG-20010904/DTD/svg10.dtd">
<svg version="1.0" xmlns="http://www.w3.org/2000/svg"
 width="28.000000pt" height="28.000000pt" viewBox="0 0 28.000000 28.000000"
 preserveAspectRatio="xMidYMid meet">

<g transform="translate(0.000000,28.000000) scale(0.100000,-0.100000)"
fill="#000000" stroke="none">
<path d="M0 140 l0 -140 140 0 140 0 0 140 0 140 -140 0 -140 0 0 -140z m60
-17 c0 -7 -4 -13 -10 -13 -5 0 -10 3 -10 8 0 4 -3 18 -6 32 -6 24 -6 25 9 5 9
-11 17 -26 17 -32z m21 25 l2 -23 4 23 c2 12 9 22 14 22 9 0 2 -48 -8 -60 -6
-7 -33 31 -33 47 0 23 20 14 21 -9z m69 5 c1 -16 2 -16 12 1 10 18 11 18 24
-5 l13 -24 1 23 c0 26 20 31 20 5 1 -16 2 -16 17 2 15 19 15 19 8 -10 -8 -37
-14 -43 -24 -26 -6 9 -11 10 -15 2 -11 -17 -26 -13 -27 7 -1 16 -2 16 -6 0 -5
-21 -19 -23 -27 -5 -5 10 -7 10 -12 0 -9 -20 -24 -15 -24 8 0 11 5 17 10 14 6
-3 10 1 10 9 0 9 5 16 10 16 6 0 10 -8 10 -17z"/>
</g>
</svg>
