<?xml version="1.0" standalone="no"?>
<!DOCTYPE svg PUBLIC "-//W3C//DTD SVG 20010904//EN"
 "http://www.w3.org/TR/2001/REC-SVG-20010904/DTD/svg10.dtd">
<svg version="1.0" xmlns="http://www.w3.org/2000/svg"
 width="1200.000000pt" height="800.000000pt" viewBox="0 0 1200.000000 800.000000"
 preserveAspectRatio="xMidYMid meet">

<g transform="translate(0.000000,800.000000) scale(0.100000,-0.100000)"
fill="#000000" stroke="none">
<path d="M5483 5727 c-15 -13 -48 -34 -73 -46 -24 -13 -53 -33 -63 -44 -23
-27 -96 -179 -163 -341 -89 -217 -162 -250 -268 -122 -21 25 -47 51 -59 57
-18 10 -25 7 -51 -24 -22 -26 -44 -39 -75 -46 -44 -10 -50 -14 -75 -61 -38
-70 -26 -277 21 -357 22 -39 25 -54 28 -198 l3 -156 -39 -41 c-22 -23 -44 -59
-51 -80 -14 -47 -50 -78 -90 -78 -51 0 -57 -66 -13 -150 24 -48 161 -187 191
-194 49 -13 58 -160 14 -231 -26 -42 -62 -53 -104 -33 -29 14 -79 33 -117 45
-22 7 -39 -44 -39 -119 0 -50 -6 -70 -45 -142 -25 -47 -59 -99 -75 -118 -41
-46 -84 -107 -78 -113 2 -2 38 24 80 59 98 82 192 139 216 132 14 -5 35 10 78
54 49 51 107 90 132 90 9 0 -7 -72 -22 -95 -8 -12 -73 -64 -144 -114 -140 -99
-278 -221 -311 -275 -27 -43 -27 -76 -1 -83 26 -7 25 -18 -2 -37 -46 -32 5
-14 110 38 123 62 225 101 245 93 9 -3 17 -40 25 -113 7 -59 22 -144 33 -188
30 -111 133 -342 202 -450 31 -50 57 -99 57 -109 0 -21 22 -21 200 0 58 6 94
28 70 43 -23 14 -114 20 -155 10 -87 -21 -89 -19 -161 90 -72 110 -133 233
-141 288 -9 55 10 33 67 -76 28 -53 62 -110 76 -127 l24 -30 -6 210 c-6 203
-6 215 21 350 55 279 142 471 306 671 66 81 154 164 174 164 29 0 24 20 -14
55 -43 40 -91 124 -121 211 -30 86 -28 251 3 337 47 130 121 220 217 266 78
37 182 37 262 -1 78 -36 142 -103 183 -191 38 -82 56 -163 34 -155 -10 4 -14
-4 -14 -31 0 -52 -30 -53 -73 -2 l-32 40 22 15 22 16 -28 0 c-52 0 -106 -80
-106 -159 0 -50 24 -102 63 -138 36 -32 43 -35 83 -29 72 9 43 -16 -49 -44
-173 -52 -237 -101 -237 -185 0 -38 7 -46 163 -202 165 -164 190 -182 245
-168 51 12 262 252 319 362 l28 55 -47 42 c-25 23 -66 50 -90 58 -23 9 -65 23
-92 33 -27 10 -58 27 -70 39 l-21 21 40 5 c51 6 68 17 94 60 41 67 21 168 -25
129 -13 -11 -20 -8 -45 19 -35 37 -36 50 -6 62 20 8 19 9 -11 9 -18 1 -42 -4
-53 -9 -45 -25 -7 50 57 113 21 21 68 52 104 70 62 31 70 32 180 31 95 0 123
-4 160 -21 73 -34 127 -79 167 -140 38 -56 38 -57 38 -157 0 -92 -2 -105 -27
-147 -41 -70 -116 -132 -199 -165 -40 -16 -74 -34 -76 -40 -2 -5 20 -21 48
-33 189 -86 394 -353 493 -643 54 -158 69 -257 72 -477 1 -111 5 -206 9 -209
3 -3 16 0 28 8 78 49 87 52 87 36 0 -8 -9 -38 -20 -66 -25 -63 -25 -69 -1 -39
33 42 98 181 125 267 28 89 56 253 56 327 0 38 3 45 20 45 29 0 150 -51 280
-118 115 -60 174 -78 210 -67 24 8 27 25 5 25 -35 0 -76 33 -142 117 -85 108
-157 173 -333 301 -155 112 -188 156 -181 240 1 15 45 16 74 0 12 -6 65 -48
117 -93 100 -86 211 -167 218 -160 8 8 -19 34 -93 90 -72 54 -125 108 -125
126 0 5 11 14 24 19 87 33 68 181 -37 277 -50 46 -61 50 -156 56 -52 3 -67 8
-82 26 -28 34 -42 98 -37 168 4 58 9 70 64 150 67 97 98 165 89 194 -6 17 -15
19 -63 17 -32 -1 -62 1 -69 5 -6 4 -27 48 -47 98 -34 85 -37 98 -39 212 -2
104 -5 126 -22 149 -18 25 -26 27 -87 28 -65 0 -68 1 -145 58 -93 70 -100 77
-122 139 -13 37 -22 47 -37 45 -61 -8 -78 -3 -132 34 -72 50 -94 58 -217 83
-117 23 -142 32 -173 61 l-22 21 -53 -25 c-28 -13 -78 -30 -109 -36 -32 -6
-60 -15 -63 -20 -3 -5 25 -11 62 -14 234 -21 344 -45 456 -102 100 -50 144
-83 221 -164 94 -100 130 -178 131 -283 0 -108 -2 -108 -137 -63 -120 41 -309
36 -413 -9 -48 -21 -96 -35 -120 -35 -12 0 -59 32 -110 76 -49 43 -117 90
-150 105 -161 76 -319 60 -476 -47 -45 -30 -84 -52 -87 -49 -12 11 29 100 93
200 36 56 65 108 65 115 0 41 111 131 248 199 34 17 60 36 57 41 -10 16 -68
12 -136 -9 -103 -31 -121 -31 -137 4 -24 53 -14 156 27 287 41 129 57 214 46
248 -8 26 -17 25 -52 -3z m255 -1008 c42 -16 13 -28 -52 -22 -69 6 -134 -6
-228 -43 -32 -12 -58 -21 -58 -19 0 12 50 50 88 67 80 36 181 43 250 17z m847
-164 c53 -25 91 -52 84 -59 -2 -2 -38 8 -79 22 -65 23 -91 27 -192 26 -123 0
-136 8 -51 32 67 19 174 10 238 -21z m-680 -543 c19 -11 18 -11 -7 -12 -29 0
-68 40 -68 69 1 11 9 7 28 -15 15 -17 36 -36 47 -42z m215 0 c-15 -5 -50 27
-50 46 0 11 9 7 30 -13 17 -17 26 -31 20 -33z m91 -132 c113 -35 159 -77 145
-133 -7 -31 -85 -128 -121 -151 l-27 -18 -47 44 c-81 78 -164 127 -313 188
-69 28 -65 41 26 69 86 28 251 28 337 1z m-365 -298 c54 -53 120 -113 146
-132 49 -36 58 -50 34 -50 -12 0 -64 35 -76 52 -3 4 -46 49 -95 100 -92 95
-121 128 -113 128 3 0 49 -44 104 -98z"/>
<path d="M5665 3271 c-48 -21 -65 -53 -65 -121 0 -27 -5 -52 -10 -55 -6 -4
-26 10 -45 31 -40 44 -47 27 -15 -36 21 -41 48 -64 118 -99 39 -20 49 -21 100
-11 129 26 134 28 130 63 -4 46 -42 57 -108 33 -59 -21 -74 -14 -83 39 -12 73
23 115 94 115 38 0 37 15 -3 40 -41 24 -62 25 -113 1z"/>
<path d="M6035 3158 c-48 -57 -46 -92 6 -96 29 -2 37 1 45 20 12 26 6 118 -6
118 -5 0 -25 -19 -45 -42z"/>
<path d="M6195 3038 c12 -40 35 -68 55 -68 31 0 31 14 -1 53 -35 42 -64 50
-54 15z"/>
<path d="M5120 3011 c0 -17 5 -33 10 -36 17 -11 48 5 54 27 6 25 -8 38 -41 38
-19 0 -23 -6 -23 -29z"/>
<path d="M5297 3032 c-10 -15 6 -62 20 -62 8 0 26 9 40 20 33 26 57 25 94 -1
16 -11 36 -18 44 -15 21 8 18 43 -4 56 -22 11 -187 14 -194 2z"/>
<path d="M6371 3022 c-28 -4 -71 -30 -71 -43 0 -18 67 -9 84 10 23 25 18 37
-13 33z"/>
<path d="M6627 3003 c-44 -23 -22 -33 73 -31 108 2 126 10 71 32 -50 19 -106
19 -144 -1z"/>
<path d="M6074 2350 c-40 -38 -79 -70 -89 -70 -17 0 -59 40 -101 96 -20 26
-28 29 -90 31 -134 5 -147 -13 -84 -118 47 -79 160 -312 155 -318 -2 -2 -28
13 -56 34 -55 40 -118 70 -126 61 -7 -7 41 -120 85 -204 31 -58 105 -142 124
-142 5 0 13 11 19 24 11 24 2 128 -15 166 -5 12 4 15 46 16 56 1 94 16 143 59
116 99 132 133 128 268 -2 92 -24 159 -53 165 -8 1 -47 -29 -86 -68z"/>
<path d="M6670 2190 c-268 -27 -495 -194 -526 -387 -4 -24 -4 -43 0 -43 4 0
23 9 44 20 115 63 168 90 180 90 6 0 12 4 12 8 0 4 9 8 20 9 28 2 121 60 140
87 25 36 81 86 125 111 47 28 119 44 244 53 48 4 86 12 88 18 2 6 -14 19 -37
28 -43 17 -152 19 -290 6z"/>
<path d="M7099 1806 c-2 -3 -86 -8 -184 -11 l-180 -6 -50 -31 c-27 -17 -63
-38 -80 -47 -46 -23 -161 -149 -148 -162 6 -6 44 -14 84 -17 102 -9 795 7 843
19 57 15 96 58 96 106 0 21 -4 44 -8 51 -5 6 -48 18 -98 26 -53 8 -109 24
-139 39 -48 25 -125 43 -136 33z"/>
<path d="M4850 1793 c-8 -3 -28 -18 -45 -34 -39 -36 -132 -86 -178 -94 -32 -6
-37 -11 -37 -34 0 -33 32 -65 80 -79 55 -17 817 -28 863 -13 21 7 37 15 37 18
0 18 -89 143 -111 154 -14 8 -56 30 -95 49 l-69 35 -215 2 c-118 1 -222 -1
-230 -4z"/>
</g>
</svg>
